<?xml version="1.0" encoding="UTF-8"?>
<svg version="1.1" viewBox="0 0 1600 256" width="200" height="auto" xmlns="http://www.w3.org/2000/svg">
<path transform="translate(1590,6)" d="m0 0c0.66 0.33 1.32 0.66 2 1-1.36 19.5-14 35-27.5 47.8-1.48 1.15-1.48 1.15-3.48 1.15-0.33 0.99-0.66 1.98-1 3-2.7 1.95-2.7 1.95-6 4-1.42 0.92-1.42 0.92-2.87 1.86-12.1 7.61-24.8 14-38.1 19.1-0.981 0.385-1.96 0.771-2.97 1.17-16.9 6.33-34.3 10.7-52 14.2-1.25 0.251-2.5 0.501-3.79 0.76-6.16 1.19-12.2 2.19-18.5 2.64-1.81 0.0407-1.81 0.0407-2.79 1.22-1.41 0.156-2.83 0.251-4.25 0.316l-2.59 0.127c-0.898 0.0393-1.8 0.0786-2.72 0.119-0.902 0.0432-1.8 0.0864-2.73 0.131-2.23 0.106-4.47 0.208-6.71 0.307v2c57.1-0.683 111-14 164-37 2.15-0.869 4.14-1.59 6.43-1.98 1 1 1 1 1.31 4.06-0.38 4.79-1.92 7.86-4.31 11.9-0.409 0.797-0.817 1.59-1.24 2.41-2.23 3.28-5 5.48-8.14 7.84-0.565 0.446-1.13 0.892-1.71 1.35-3.24 2.48-5.82 4-9.91 4.4v2c-23.6 9.82-47.1 16.2-72.4 19.8-0.761 0.107-1.52 0.214-2.31 0.324-10.1 1.4-20.1 2.37-30.3 2.93-0.954 0.0606-1.91 0.121-2.89 0.184-15.8 0.996-31.3 0.619-47.1-0.184v2c2.97-0.495 2.97-0.495 6-1 0.33 0.66 0.66 1.32 1 2 11.8 2.78 24.2 2.36 36.2 2.31 0.97-0.00182 1.94-0.00365 2.94-0.00552 15.8-0.0498 31.2-0.846 46.8-3.31 1.13-0.172 2.27-0.343 3.43-0.52 16.8-2.57 33.2-6.07 49.7-9.93 5.92-1.37 11.8-2.54 17.8-3.55 0.66 0.99 1.32 1.98 2 3-3.38 6.27-6.49 10.7-13 14h-3v2c-38.1 18.1-85.5 18.7-127 14.7-6.47-0.625-12.8-0.826-19.3-0.712 10.9 2.58 21.8 4.95 33 6 0.919 0.0876 1.84 0.175 2.79 0.265 11.1 0.931 22.3 0.932 33.5 0.922 1.53 9.06e-5 1.53 9.06e-5 3.09 1.83e-4 15.6-0.0132 31.1-0.486 46.7-2.19 0.944-0.101 1.89-0.203 2.86-0.307 0.939-0.101 1.88-0.202 2.85-0.306 0.897-0.0962 1.79-0.192 2.72-0.292 1.66-0.182 3.32-0.373 4.97-0.573 5.39-0.628 5.39-0.628 7.6 0.478-0.835 6.27-4.15 9.2-9 13-37.9 22.9-91.6 15.2-132 5.32-2.9-0.739-5.79-1.53-8.68-2.32-4.08-1.11-7.73-2-12-2 32.9 11.1 66.9 21.3 102 21.1 1.05-0.00338 2.1-0.00677 3.18-0.0103 12.5 0.595 12.5 0.595 23.9-3.11h2c-0.812 1.94-0.812 1.94-2 4-0.99 0.33-1.98 0.66-3 1l-1.56 1.75c-3.66 3.38-7.93 5.2-12.4 7.25-0.639 0.302-1.28 0.603-1.94 0.914-36.9 15.8-87.9-1.64-123-14.9-0.777-0.278-1.55-0.557-2.36-0.844-3.83-1.37-7.22-2.91-10.6-5.16-0.33 0.33-0.66 0.66-1 1 35.3 24.2 72.7 34.7 115 34v4c-11.9 6.09-24.6 10.4-38 11-0.962 0.0516-1.92 0.103-2.91 0.156-35.6 1-68.4-14-98.6-31.2-2.47-1.39-4.92-2.73-7.47-3.95v4c2.32 1.73 4.51 3.18 7 4.62 2.38 1.41 4.69 2.85 7 4.38v2c0.99 0.33 1.98 0.66 3 1-0.33 0.66-0.66 1.32-1 2-1.94 0.0735-1.94 0.0735-3.92 0.148-23.2 0.956-43.2 4.56-62.1 18.9-0.744-28.4 5.52-53.8 20.8-77.9 0.385-0.613 0.77-1.23 1.17-1.86 0.95-1.46 1.98-2.87 3.02-4.27h2c0.389-0.86 0.389-0.86 0.785-1.74 11.7-21.9 43.5-37.1 66.3-44.2 7.24-2.11 14.5-4.04 21.8-5.96 37.1-9.76 73.3-21.3 109-35.1 1.19-0.454 2.38-0.908 3.61-1.38 1.15-0.438 2.29-0.876 3.48-1.33 1.02-0.387 2.03-0.774 3.08-1.17 3.41-1.35 6.72-2.85 10-4.42 1.8-0.699 1.8-0.699 4.8-0.699v-2c0.534-0.231 1.07-0.461 1.62-0.699 17.2-7.52 37-16.8 50.4-30.3 1.35-1.2 2.7-2.38 4.06-3.56 2.04-1.77 4.03-3.53 5.94-5.44zm-185 138v2c1.32-0.66 2.64-1.32 4-2h-4z" fill="#F31C22"/>
<path transform="translate(58.8 23)" d="m0 0c1.1 0.0747 1.1 0.0747 2.23 0.151 9.06 0.791 21.1 2.62 28 8.85 1.12 2.17 1.12 2.17 2 4.68 0.328 0.922 0.655 1.84 0.993 2.79 0.332 0.977 0.665 1.95 1.01 2.96 0.35 0.996 0.701 1.99 1.06 3.02 2.1 5.99 4.12 12 6.09 18.1 1.1 3.24 2.37 6.4 3.66 9.57 4.59 11.3 8.89 22.7 12.8 34.2 1.52 4.44 3.26 8.54 5.4 12.7v2c3.67-1.93 5.35-3.22 7-7 0.993-1.01 1.99-2.01 3-3 1.02-1.25 2.02-2.52 3-3.8 0.838-1.1 0.838-1.1 1.69-2.21 0.577-0.759 1.15-1.52 1.75-2.3 0.573-0.747 1.15-1.49 1.74-2.26 2.49-3.26 4.91-6.5 7.11-9.97 0.566-0.811 1.13-1.62 1.71-2.46h2c0.364-1.08 0.364-1.08 0.734-2.17 1.44-3.21 3.22-5.41 5.52-8.08 3.55-4.21 6.67-8.48 9.56-13.2 0.59-0.783 0.59-0.783 1.19-1.58h2c0.227-0.722 0.454-1.44 0.688-2.19 1.57-3.36 3.67-5.23 6.31-7.81 1.01-1.66 2.01-3.33 3-5 12.3-17.2 12.3-17.2 16-19 1.35-0.094 2.7-0.128 4.05-0.129 1.25-0.00473 1.25-0.00473 2.53-0.00955 1.35 0.00304 1.35 0.00304 2.73 0.00613 1.39-0.00144 1.39-0.00144 2.8-0.0029 1.96-6.81e-4 3.91 0.00117 5.87 0.00534 3 0.00535 6 5.28e-5 9.01-0.00635 1.9 6.61e-4 3.8 0.00194 5.7 0.00391 0.902-0.00202 1.8-0.00405 2.73-0.00613 0.834 0.00315 1.67 0.0063 2.53 0.00955 0.736 7.96e-4 1.47 0.00159 2.23 0.00241 1.82 0.127 1.82 0.127 3.82 1.13 0.256 7.38-0.487 14.3-1.76 21.5-0.184 1.09-0.367 2.18-0.556 3.3-0.596 3.52-1.2 7.04-1.81 10.6-0.414 2.44-0.828 4.87-1.24 7.31-0.823 4.85-1.65 9.7-2.48 14.6-1.41 8.27-2.79 16.5-4.17 24.8-0.565 3.4-1.13 6.81-1.7 10.2-0.311 1.86-0.311 1.86-0.628 3.77-3.66 22-3.66 22-4.15 24.9-0.477 2.89-0.931 5.78-1.37 8.67-0.913 5.95-1.85 11.9-2.79 17.8-0.401 2.56-0.797 5.12-1.19 7.67-0.566 3.71-1.15 7.42-1.75 11.1-0.168 1.13-0.336 2.27-0.509 3.43-1.93 11.8-6.7 21.5-15.9 29.4-7.91 5.13-15.7 8.13-25.2 8.19-1.05 0.0142-2.09 0.0284-3.17 0.043-2.64-0.23-2.64-0.23-4.64-2.23-0.22-7.89 1.72-16.1 2.98-23.9 2.07-12.8 3.96-25.6 5.67-38.4 0.856-6.38 1.82-12.7 2.9-19.1 0.559-3.36 1.01-6.73 1.44-10.1 1.16-8.88 2.52-17.7 4-26.6l-2.31 2.44c-2.69 2.56-2.69 2.56-5.69 3.56-0.267 0.69-0.534 1.38-0.809 2.09-1.68 4.12-4.41 7.09-7.25 10.5-3.98 4.8-7.87 9.6-11.6 14.6-3.7 5.02-7.64 9.76-11.7 14.4-2.31 2.67-4.18 5.14-5.63 8.36-0.979 1.02-1.98 2.02-3 3l-2 3h-2c-0.197 0.657-0.394 1.31-0.598 1.99-1.98 4.25-4.85 7.55-7.84 11.1-0.586 0.715-1.17 1.43-1.78 2.17-2.49 3.03-4.97 5.97-7.79 8.71-2.8-4.73-5.18-9.45-7.31-14.5-2.27-5.28-4.6-10.5-7.06-15.7-4.48-9.49-8.53-19.2-12.6-28.8-1.62-3.81-3.25-7.63-4.88-11.4-0.369-0.87-0.738-1.74-1.12-2.64-1.87-4.39-3.82-8.69-6.01-12.9-1.88 1.88-1.77 5.04-2.19 7.56-1.66 9.68-3.43 19.3-5.27 29-0.269 1.41-0.538 2.83-0.808 4.24-0.138 0.723-0.276 1.45-0.418 2.19-0.952 5.02-1.86 10-2.74 15.1-0.657 3.7-1.33 7.4-2.01 11.1-0.326 1.8-0.644 3.6-0.953 5.4-1.76 10.3-3.41 18.5-10.6 26.4-1.07 1.34-1.07 1.34-2.16 2.7-7.87 8.22-19.2 14.8-30.8 15.3-1.68-0.283-3.35-0.605-5-1-0.0558-1.46-0.0936-2.92-0.125-4.38-0.0348-1.22-0.0348-1.22-0.0703-2.46 0.22-3.56 0.899-6.89 1.63-10.4 1-4.96 1.73-9.97 2.5-15 1.27-8.11 2.68-16.1 4.35-24.2 0.821-4.2 1.5-8.41 2.15-12.6 2.3-14.9 4.86-29.8 7.91-44.6 0.891-4.68 1.53-9.39 2.12-14.1 0.492-3.1 1.22-6.06 2-9.09 1.02-4.32 1.64-8.71 2.34-13.1 1.61-9.89 3.39-19.7 5.33-29.6 1.04-5.24 2.03-10.5 2.89-15.8 0.164-0.969 0.329-1.94 0.498-2.94 0.305-1.81 0.594-3.63 0.863-5.45 1-5.83 1-5.83 3.75-8.47 3.63-1.19 6.85-1.22 10.6-0.934zm161 124 1 2z" fill="#FCFCFC"/>
<path transform="translate(1087 76.1)" d="m0 0c0.763 0.639 1.53 1.28 2.31 1.94v3c0.99 0.33 1.98 0.66 3 1 6.63 8.59 10.6 19.2 11 30 0.0947 1.8 0.0947 1.8 0.191 3.64 0.846 23.2-5.72 47.4-21.6 64.8-12.1 12.7-25.9 19.9-43.6 20.7-12.5 0.22-22.9-1.34-32.2-10.3-0.565-0.596-1.13-1.19-1.71-1.8-2.34 2.34-2.48 3.42-3.11 6.61-0.194 0.958-0.387 1.92-0.587 2.9-0.303 1.56-0.303 1.56-0.613 3.15-0.214 1.07-0.429 2.14-0.65 3.24-0.686 3.43-1.36 6.85-2.04 10.3-0.677 3.41-1.36 6.82-2.04 10.2-0.424 2.12-0.845 4.25-1.26 6.37-0.194 0.974-0.387 1.95-0.587 2.95-0.167 0.849-0.334 1.7-0.507 2.57-0.736 3.26-1.69 6.47-2.61 9.69h-31c-1.13-6.75-1.13-6.75-0.243-10.8 0.191-0.899 0.381-1.8 0.578-2.72 0.322-1.43 0.322-1.43 0.65-2.9 0.216-1 0.433-2.01 0.655-3.04 0.693-3.21 1.4-6.41 2.11-9.61 0.462-2.13 0.923-4.25 1.38-6.38 1.8-8.28 3.62-16.6 5.55-24.8 1.35-5.81 2.55-11.6 3.7-17.5 0.211-1.06 0.421-2.12 0.638-3.21 0.664-3.35 1.33-6.69 1.99-10 0.873-4.42 1.75-8.83 2.62-13.2 0.194-0.986 0.388-1.97 0.587-2.99 1.21-6.11 2.57-12.2 3.98-18.2 1.52-6.65 2.9-13.3 4.3-20 0.592-2.82 1.19-5.65 1.78-8.47 0.258-1.23 0.517-2.46 0.783-3.73 1.26-5.78 2.61-11.5 3.94-17.3h33c-0.66 4.29-1.32 8.58-2 13 0.495 1.48 0.495 1.48 1 3v-3c1.92-1.8 3.78-3.37 5.88-4.94 0.588-0.447 1.18-0.893 1.78-1.35 15.4-11.3 36.6-12.5 53-2.65zm-60.7 29.9c-0.654 0.593-1.31 1.19-1.98 1.8-9.56 10.4-13 26.5-13.9 40.2-0.0495 0.694-0.0989 1.39-0.15 2.1-0.331 7.24 1.33 13.3 6.02 18.9 6.93 4.47 13.8 5.83 22 5 12-3.09 17.4-9.25 24.1-19.1 6.84-12.7 8.74-29.7 5.54-43.7-1.6-5.23-4.59-8.58-8.66-12.2-11.6-5.66-24.3-1.62-33 7zm74 28 1 2z" fill="#FBFBFB"/>
<path transform="translate(386,27)" d="m0 0c24.4-0.188 24.4-0.188 33.9 0.25 1.14 0.0464 2.29 0.0928 3.46 0.141 2.6 0.609 2.6 0.609 3.79 2.34 0.972 2.73 0.803 4.29 0.328 7.14-0.157 0.981-0.315 1.96-0.477 2.97-0.279 1.61-0.279 1.61-0.563 3.26-0.188 1.15-0.375 2.29-0.568 3.47-0.411 2.5-0.828 5-1.25 7.5-0.661 3.92-1.31 7.83-1.94 11.8-1.32 8.05-2.66 16.1-4 24.1-0.408 2.44-0.816 4.88-1.22 7.32-4.83 28.9-9.7 57.8-14.6 86.7-0.769 4.54-1.54 9.08-2.3 13.6-0.907 5.37-1.82 10.7-2.73 16.1-0.338 1.99-0.676 3.99-1.01 5.98-0.461 2.73-0.925 5.46-1.39 8.19-0.135 0.806-0.27 1.61-0.409 2.44-0.945 5.5-0.945 5.5-2.06 7.73h-41c-1.13-4.52-0.54-7.86 0.293-12.3 0.219-1.23 0.219-1.23 0.443-2.49 0.476-2.67 0.964-5.33 1.45-7.99 0.329-1.83 0.658-3.66 0.985-5.49 0.646-3.6 1.3-7.21 1.95-10.8 1.08-5.95 2.11-11.9 3.13-17.9 1.5-8.68 3.09-17.3 4.75-26h-2v-2c-0.847 0.0105-1.69 0.0209-2.57 0.0317-3.16 0.0342-6.33 0.0592-9.49 0.0781-1.37 0.01-2.73 0.0236-4.1 0.041-1.97 0.0245-3.94 0.0346-5.91 0.0444-1.78 0.0157-1.78 0.0157-3.59 0.0317-3.43-0.233-6.15-0.997-9.34-2.23v-2c-0.701-0.227-1.4-0.454-2.12-0.688-6.62-3.02-10.8-7.79-13.9-14.3-2.62-7.56-2.13-15.2-1-23l1-2c20.3-0.788 40.6-1.14 61-1 0.0272-0.651 0.0545-1.3 0.0825-1.97 0.644-10.9 2.48-21.7 4.25-32.5 0.543-3.33 1.08-6.66 1.61-9.99 5.33-33.1 5.33-33.1 7.06-36.5z" fill="#FCFCFC"/>
<path transform="translate(598,33)" d="m0 0c0.998 0.77 0.998 0.77 2.02 1.55 1.38 1.09 2.69 2.26 3.98 3.45v2h2c4.47 5.61 8.68 11.5 8 19-0.784 0.392-1.57 0.784-2.38 1.19-0.545 0.273-1.09 0.547-1.65 0.828-1.45 0.723-2.9 1.44-4.35 2.16-3.9 1.93-7.73 3.86-11.4 6.14-4.76 2.52-4.76 2.52-8.19 1.69-1.88-2-1.88-2-4-5-7.63-9.8-17.5-17.2-29.9-19.5-16.4-1.87-32.1 3.72-45.1 13.5-2.89 2.5-5.48 5.13-8 8-0.521 0.592-1.04 1.18-1.58 1.79-4.92 6.08-8.09 13.2-11.4 20.2h-2c-0.11 0.594-0.219 1.19-0.332 1.8-0.861 4.5-1.85 8.79-3.29 13.1-1.48 5.28-1.7 10.4-1.75 15.8-0.0137 0.804-0.0274 1.61-0.0415 2.44 0.0412 5.38 1.07 8.98 3.42 13.8 0.394 1.43 0.772 2.87 1.12 4.31 1.92 6.02 6.27 10.5 10.9 14.7h2v2c1.08 0.418 1.08 0.418 2.18 0.844 2.73 1.12 5.36 2.37 8.01 3.66 12.3 5.6 24.1 5.83 36.8 1.5 12.3-5.15 21.9-12.4 31-22 21.3 11.8 21.3 11.8 24 18-10.2 14.3-10.2 14.3-15.1 15.5-0.611 0.164-1.22 0.327-1.85 0.496-0.33 0.99-0.66 1.98-1 3-20.3 14.9-41.8 22.3-67.1 19.2-14.7-2.38-26.4-6.93-37.9-16.2-0.67-0.523-1.34-1.05-2.03-1.59-12.9-10.5-20.1-26.3-23-42.4-0.257-1.16-0.257-1.16-0.519-2.35-2.43-13.4-1.08-28.6 2.52-41.6l0.586-2.34c2.29-7.96 6.6-15.3 10.4-22.7 0.756-1.45 0.756-1.45 1.53-2.93 1.9-3.52 3.58-6.3 6.47-9.07 0.928-1.05 1.84-2.12 2.75-3.19 0.526-0.614 1.05-1.23 1.59-1.86 1.1-1.29 2.18-2.59 3.25-3.91 4.57-5.48 9.76-9.72 15.4-14 0.859-0.696 1.72-1.39 2.6-2.11 27.4-21.6 74.8-20.3 101 1.11z" fill="#FBFBFB"/>
<path transform="translate(714,70)" d="m0 0v2c0.589 0.0915 1.18 0.183 1.79 0.277 5.67 1.85 10.1 9.29 13 14.3 10.3 20.9 8.33 44.5 2.29 66.4-1.07 2.99-2.41 5.39-4.1 8.07-0.392 1.03-0.784 2.06-1.19 3.12-5.86 14-18.6 26.1-32.5 32-17.9 6.99-38.1 9.46-56.3 1.91-3.12-1.51-6.09-3.12-9-5v-2c-0.732-0.227-1.46-0.454-2.22-0.688-7.18-3.39-12.5-12.4-15.8-19.5-7.91-22.6-4.26-47 5.71-68.3 1.56-3.06 3.28-5.95 5.16-8.81 1-1.54 1.92-3.13 2.82-4.73 0.433-0.66 0.866-1.32 1.31-2h2c0.253-0.583 0.505-1.17 0.766-1.77 5.97-10.8 21.8-18.1 33.1-21.5 17.7-4.23 37.5-4.17 53.1 6.25zm-63.9 30.2c-11.5 15.3-15.4 35-14.1 53.8 1.04 4.49 2.57 8.1 5 12 0.362 0.619 0.724 1.24 1.1 1.88 3.84 5.51 11.4 8.91 17.9 10.1 11.2 1 20.1-1.49 28.8-8.71 13.7-14.5 16.7-35.6 16.5-54.6-0.198-6.11-1.28-11.3-4.29-16.7-0.748-1.37-0.748-1.37-1.51-2.77-0.737-1.1-0.737-1.1-1.49-2.23h-2c-0.495-1.48-0.495-1.48-1-3-5.48-3.85-10.3-4.2-16.8-4.25-0.686-0.0206-1.37-0.0413-2.08-0.0625-11-0.0831-19.1 6.47-26 14.5z" fill="#FBFBFB"/>
<path transform="translate(898 20.8)" d="m0 0c1.17-0.0122 2.33-0.0245 3.54-0.0371 1.67-0.0029 1.67-0.0029 3.37-0.00586 1.02-0.00411 2.05-0.00822 3.1-0.0125 2.49 0.243 2.49 0.243 4.49 2.24-0.483 8.84-2.4 17.6-3.91 26.4-0.288 1.68-0.575 3.36-0.863 5.04-0.6 3.51-1.2 7.02-1.81 10.5-0.773 4.49-1.54 8.99-2.31 13.5-0.592 3.47-1.19 6.93-1.78 10.4-0.284 1.66-0.568 3.31-0.852 4.97-0.396 2.31-0.793 4.62-1.19 6.93-0.116 0.682-0.233 1.36-0.353 2.07-0.433 2.5-0.876 4.98-1.52 7.44-0.691 2.91-0.48 5.81-0.423 8.78 1.8 0.805 1.8 0.805 4 1 1.98-1.29 1.98-1.29 3.75-3.31 0.7-0.744 1.4-1.49 2.12-2.25 2.75-3.15 5.34-6.41 7.91-9.71 3.01-3.7 6.25-7.17 9.54-10.6 2.42-2.57 4.21-4.91 5.68-8.11 2.5-2.75 2.5-2.75 5-5h2c0.284-0.583 0.569-1.17 0.862-1.77 1.93-3.79 3.53-6.81 7.14-9.23 4.89-0.951 9.66-0.795 14.6-0.625 1.34 0.0094 2.67 0.0159 4.01 0.0195 10.7 0.184 10.7 0.184 14.4 3.61-6.65 7.89-13.4 15.6-20.5 23.1-3.45 3.68-6.81 7.43-10.1 11.2-2.04 2.3-4.25 4.43-6.42 6.6-0.66 0.825-1.32 1.65-2 2.5-2.17 2.71-4.52 5.08-7 7.5-0.887 0.928-1.77 1.86-2.69 2.81-2.31 2.19-2.31 2.19-4.31 2.19-1.22 9.19 4.98 16.5 9.71 23.9 2.1 3.43 3.97 6.97 5.88 10.5 2.65 4.9 5.46 9.7 8.34 14.5 2 3.34 4 6.68 5.94 10.1 0.41 0.71 0.82 1.42 1.24 2.15 0.883 1.91 0.883 1.91 0.883 4.91-4.42 0.116-8.83 0.187-13.2 0.25-1.25 0.0335-2.51 0.067-3.8 0.102-1.21 0.0129-2.41 0.0258-3.65 0.0391-1.11 0.0209-2.22 0.0419-3.36 0.0635-3.63-0.562-4.68-1.62-6.93-4.45-1.2-1.71-1.2-1.71-2.19-3.44-0.572-0.984-0.572-0.984-1.16-1.99-0.401-0.704-0.802-1.41-1.21-2.13-0.431-0.744-0.861-1.49-1.3-2.25-0.916-1.58-1.83-3.17-2.74-4.75-1.83-3.19-3.67-6.37-5.52-9.55-0.916-1.58-1.83-3.16-2.75-4.75-4.66-8.07-9.39-16.1-14.1-24.1-0.99 0.33-1.98 0.66-3 1-2.97 18.5-5.94 37-9 56h-26v-3h-2c0.322-1.7 0.322-1.7 0.651-3.43 3.27-17.5 6.07-35.1 8.88-52.6 0.698-4.37 1.4-8.74 2.1-13.1 3.23-20.1 6.36-40.1 9.31-60.2 1.51-10.2 3.22-20.4 5.06-30.6 0.355-2 0.709-4 1.06-6 0.41-2.31 0.41-2.31 0.938-4 4.23-2.12 9.85-1.18 14.5-1.19z" fill="#FCFCFC"/>
<path transform="translate(267 27.8)" d="m0 0c1.89 0.0213 1.89 0.0213 3.83 0.043 0.686 0.00645 1.37 0.0129 2.08 0.0195 9.73 0.137 19.5 0.663 29.2 1.17 1.87 3.13 2.18 4.94 1.59 8.52-0.141 0.895-0.282 1.79-0.428 2.71-0.166 0.968-0.333 1.94-0.504 2.93-0.164 1.02-0.328 2.03-0.498 3.08-0.54 3.32-1.1 6.63-1.66 9.94-0.376 2.28-0.751 4.57-1.13 6.85-2.33 14.1-4.8 28.2-7.43 42.3-1.48 7.95-2.84 15.9-3.92 23.9-0.636 4.59-1.49 9.11-2.42 13.7-1.15 5.67-2.17 11.3-3.07 17.1-0.121 0.769-0.242 1.54-0.367 2.33-0.494 3.15-0.984 6.29-1.47 9.44-1.32 8.57-2.76 17.1-4.69 25.5-0.152 0.685-0.304 1.37-0.461 2.08-3.19 13.4-12.4 24.6-23.8 32-6.84 3.97-14.7 7.62-22.8 7.62-1.2-5.93-0.677-10.9 0.312-16.9 0.131-0.847 0.262-1.69 0.396-2.57 0.767-4.84 1.73-9.61 2.82-14.4 0.77-3.56 1.31-7.14 1.85-10.7 0.257-1.67 0.515-3.33 0.773-5 0.136-0.878 0.273-1.76 0.413-2.66 0.784-4.97 1.61-9.94 2.44-14.9 0.154-0.928 0.308-1.86 0.466-2.81 0.819-4.91 1.66-9.81 2.53-14.7 1.78-10 3.49-20.1 5.18-30.1 0.298-1.76 0.595-3.53 0.893-5.29 0.621-3.68 1.24-7.36 1.86-11 0.778-4.62 1.56-9.24 2.34-13.9 0.46-2.73 0.919-5.45 1.38-8.18 0.601-3.56 1.2-7.13 1.81-10.7 1.38-8.14 2.73-16.3 4.04-24.4 0.338-2.1 0.677-4.19 1.02-6.29 0.307-1.92 0.606-3.84 0.905-5.76 0.182-1.13 0.365-2.26 0.552-3.42 0.23-1.47 0.23-1.47 0.466-2.96 0.884-3.56 1.85-4.25 5.49-4.54z" fill="#FCFCFC"/>
<path transform="translate(810 67.7)" d="m0 0c0.973 0.00419 1.95 0.00838 2.95 0.0127 10.7 0.168 19.7 2.53 29.3 7.3v2c0.866 0.0619 0.866 0.0619 1.75 0.125 3.36 1.31 4.36 3.89 6.25 6.88 0.99 0.66 1.98 1.32 3 2 1.13 1.91 1.13 1.91 2.12 4.06 1.15 2.67 1.15 2.67 2.88 4.94 0.0408 2 0.0425 4 0 6-2.37 1.27-4.75 2.54-7.12 3.81-0.665 0.356-1.33 0.713-2.02 1.08-3.92 2.1-7.87 4.14-11.9 6.11l-2 1c-0.413-0.722-0.825-1.44-1.25-2.19-1.71-2.87-1.71-2.87-3.94-5.5-1.81-2.31-1.81-2.31-1.81-4.31-8.64-4.68-16-6.66-25.6-4.02-5.98 2.02-10.6 3.98-15.4 8.02h-2c-0.33 0.99-0.66 1.98-1 3-4.32 4.77-4.32 4.77-8 6-0.0825 0.66-0.165 1.32-0.25 2-0.661 2.64-1.39 4.29-2.69 6.62-4.72 9.2-5.13 19.9-2.39 29.8 2.38 6.64 5.07 9.24 11.3 12.2 0.95 0.468 0.95 0.468 1.92 0.945 8.03 3.92 16.4 5.22 25.1 2.49 4.77-2.27 8.05-4.58 11-9.06l3-3c1.02-1.32 2.02-2.65 3-4 1.98 0.495 1.98 0.495 4 1v2c1.18 0.464 1.18 0.464 2.38 0.938 2.62 1.06 2.62 1.06 4.62 2.06v2c1.98 0.66 3.96 1.32 6 2v2h3c2 3 2 3 1.94 5.75-1.16 4.03-3.04 7.2-5.94 10.2h-2c-0.268 0.639-0.536 1.28-0.812 1.94-1.19 2.06-1.19 2.06-4.19 3.06-0.678 1.33-1.34 2.66-2 4-9.47 8.16-22.2 10.2-34.2 10.2-0.895 0.0122-1.79 0.0245-2.71 0.0371-14.9 0.0322-29.4-4.6-40.7-14.5-5.44-6.15-9.32-12.1-12.4-19.7-0.588-1.24-0.588-1.24-1.19-2.5-5.47-16.8-1.84-39.8 5.64-55.6 1.4-2.43 2.9-4.68 4.55-6.95 0.461-0.679 0.923-1.36 1.4-2.06 13-18.4 33.8-30.4 56.4-30.3z" fill="#FAFAFA"/>
<path transform="translate(884 219)" d="m0 0c0.887 8.07e-4 1.77 0.00161 2.69 0.00245 20.9 0.0197 41.7 0.0563 62.6 0.123-0.285 1.56-0.579 3.13-0.875 4.69-0.244 1.31-0.244 1.31-0.492 2.64-0.639 2.7-1.58 5.11-2.63 7.68-47.6 0.0232-95.2 0.0407-143 0.0511-5.7 0.00125-11.4 0.00254-17.1 0.00387-1.7 3.93e-4 -1.7 3.93e-4 -3.43 7.95e-4 -15.8 0.00376-31.7 0.0099-47.5 0.018-27.3 0.014-54.6 0.0232-81.9 0.0239-1.59 5.79e-5 -1.59 5.79e-5 -3.22 1.17e-4 -69.4 0.00169-139-0.232-208-1.1-1-3-1-3-0.258-5.01 0.374-0.699 0.748-1.4 1.13-2.12 0.369-0.704 0.737-1.41 1.12-2.13 1.01-1.74 1.01-1.74 2.01-2.74 1.61-0.107 3.22-0.144 4.83-0.154 1.05-0.00896 2.1-0.0179 3.19-0.0271 1.17-0.00487 2.34-0.00974 3.55-0.0148 1.85-0.0135 1.85-0.0135 3.74-0.0273 3.45-0.0242 6.9-0.0438 10.4-0.0616 3.73-0.0203 7.46-0.0463 11.2-0.0715 7.36-0.0489 14.7-0.0923 22.1-0.134 6.05-0.0344 12.1-0.0708 18.1-0.109 0.865-0.00543 1.73-0.0109 2.62-0.0164 1.76-0.0111 3.52-0.0221 5.28-0.0332 17.7-0.111 35.3-0.214 53-0.314 12.5-0.0711 25-0.144 37.5-0.218 87.8-0.521 176-1.02 263-0.944z" fill="#EA1B21"/>
<path transform="translate(1230,42)" d="m0 0c-0.455 6.86-1.15 13.5-2.6 20.2-0.517 3.55-0.402 7.17-0.402 10.8h24c-1.08 6.75-2.25 13.5-3.56 20.2-0.249 1.27-0.498 2.54-0.754 3.86-0.684 2.96-0.684 2.96-1.68 3.96-1.93 0.0875-3.86 0.107-5.79 0.0977-1.75-0.00483-1.75-0.00483-3.54-0.00977-1.23-0.00838-2.46-0.0168-3.73-0.0254-1.85-0.00677-1.85-0.00677-3.74-0.0137-3.06-0.0118-6.13-0.0283-9.19-0.0488-0.0381 0.557-0.0762 1.11-0.115 1.69-0.636 7.67-2.19 15.1-3.82 22.6-4.82 18.8-4.82 18.8-4.06 37.8 3.91 3.15 7.39 3.46 12.3 3.69 1.25 0.0657 2.51 0.131 3.8 0.199 0.953 0.0374 1.91 0.0748 2.89 0.113-0.584 4.27-1.2 8.54-1.81 12.8-0.166 1.21-0.331 2.43-0.502 3.68-0.171 1.16-0.342 2.33-0.518 3.53-0.152 1.07-0.304 2.15-0.46 3.25-0.754 2.91-1.28 4.01-3.71 5.73-3.1 0.588-5.86 0.86-9 1-1.29 0.0645-2.58 0.129-3.91 0.195-10 0.345-20.1 0.141-28.6-6-5.13-4.8-8.18-9.28-8.8-16.3-0.466-16.7 3.63-33.1 7.12-49.4 1.66-7.8 3.03-15.6 4.16-23.5-1.35-0.0719-1.35-0.0719-2.73-0.145-1.04-0.0552-2.08-0.11-3.14-0.167-1.64-0.087-1.64-0.087-3.3-0.176-0.931-0.169-1.86-0.338-2.82-0.512-2.37-3.56-2.1-4.2-1.36-8.25 0.182-1.02 0.365-2.04 0.553-3.09 0.203-1.06 0.406-2.13 0.615-3.22 0.191-1.07 0.383-2.13 0.58-3.23 1.44-7.87 1.44-7.87 2.61-10.2h16c0.124-1.57 0.247-3.14 0.375-4.75 0.398-4.27 0.879-8.51 1.5-12.8 0.213-1.47 0.213-1.47 0.43-2.97 0.798-2.91 1.35-3.69 3.7-5.53 2.83-0.907 2.83-0.907 6.24-1.64 1.23-0.266 2.46-0.531 3.73-0.805 1.29-0.266 2.58-0.531 3.9-0.805 1.28-0.281 2.56-0.562 3.88-0.852 10.4-2.2 10.4-2.2 15.2-0.898zm18 32c0.66 0.66 1.32 1.32 2 2v-2h-2z" fill="#FAFAFB"/>
<path transform="translate(1128,75)" d="m0 0h35c-0.33 0.66-0.66 1.32-1 2-0.172 1.59-0.302 3.19-0.41 4.79-0.555 6.6-1.76 13-3.03 19.5-0.373 1.94-0.747 3.88-1.12 5.82-0.394 2.04-0.79 4.08-1.19 6.12-1.24 6.35-2.45 12.7-3.67 19.1-0.273 1.42-0.546 2.84-0.82 4.27-2.58 13.4-5.08 26.9-7.51 40.4-0.255 1.41-0.255 1.41-0.516 2.85-0.915 5.07-1.83 10.1-2.73 15.2-7.35 0.883-14.6 1.18-22 1.19-1.04 0.0122-2.07 0.0245-3.14 0.0371-1.48 0.0029-1.48 0.0029-2.99 0.00586-0.889 0.00411-1.78 0.00822-2.7 0.0125-2.18-0.243-2.18-0.243-4.18-2.24-0.467-9.16 2.31-19 3.96-28 0.481-2.63 0.955-5.26 1.43-7.88 0.308-1.7 0.615-3.4 0.924-5.09 0.14-0.772 0.279-1.54 0.423-2.34 0.838-4.56 1.78-9.09 2.81-13.6 0.926-4.23 1.6-8.5 2.31-12.8 0.692-4.04 1.57-7.97 2.6-11.9 1.55-6.66 2.54-13.5 3.69-20.2 0.21-1.2 0.42-2.41 0.637-3.65 0.186-1.09 0.373-2.17 0.564-3.29 0.698-3.46 1.69-6.85 2.65-10.2z" fill="#FCFCFC"/>
<path transform="translate(626,221)" d="m0 0v1c1.18 0.155 1.18 0.155 2.38 0.312 2.62 0.688 2.62 0.688 4.62 3.69v4h2c0.33-0.99 0.66-1.98 1-3 0.381 1.99 0.713 3.99 1 6-1.76 1.76-4.25 1.13-6.63 1.13-1.85 0.00467-1.85 0.00467-3.74 0.00943-1.39-0.00182-2.79-0.00383-4.18-0.00601-1.48 0.00102-2.96 0.00236-4.43 4e-3 -4.1 0.00276-8.19-0.00187-12.3-0.00824-2.59-0.00356-5.18-0.00519-7.77-0.00626-52.3-0.0265-105-0.603-157-1.12-1-3-1-3-0.258-5.01 0.374-0.699 0.748-1.4 1.13-2.12 0.369-0.704 0.737-1.41 1.12-2.13 1.01-1.74 1.01-1.74 2.01-2.74 2.19-0.111 4.39-0.151 6.59-0.165 0.697-0.00564 1.39-0.0113 2.11-0.0171 2.35-0.0178 4.71-0.0284 7.06-0.0391 1.68-0.0112 3.36-0.0228 5.04-0.0349 4.58-0.0314 9.16-0.0565 13.7-0.0802 3.82-0.0204 7.64-0.0439 11.5-0.0675 9.02-0.0557 18-0.106 27.1-0.154 9.3-0.049 18.6-0.105 27.9-0.165 7.98-0.0514 16-0.0988 24-0.143 4.77-0.0263 9.54-0.0539 14.3-0.0854 4.49-0.0294 8.98-0.0536 13.5-0.0739 1.64-0.00827 3.29-0.0183 4.93-0.0303 7.85-0.0562 15.6-0.069 23.4 1.06z" fill="#EA1B21"/>
<path transform="translate(1255,223)" d="m0 0c0.99 1.98 0.99 1.98 2 4-2.8 2.8-4.57 2.27-8.51 2.32-1.02 0.0148-1.02 0.0148-2.05 0.0299-2.28 0.0309-4.57 0.0475-6.85 0.0643-1.64 0.0192-3.27 0.0392-4.91 0.06-4.48 0.0544-8.95 0.0963-13.4 0.136-4.75 0.0441-9.51 0.0988-14.3 0.152-8.06 0.0889-16.1 0.17-24.2 0.247-8.12 0.077-16.2 0.16-24.4 0.25-51.5 0.572-103 0.886-154 0.745 0.875-5.88 0.875-5.88 2-7 2.82-0.126 5.62-0.186 8.44-0.205 1.35-0.0148 1.35-0.0148 2.72-0.03 3.04-0.0321 6.09-0.0567 9.13-0.0811 2.19-0.0208 4.37-0.0418 6.56-0.0631 6-0.0566 12-0.106 18-0.153 3.76-0.03 7.52-0.0619 11.3-0.0942 64.3-0.547 129-0.474 193-0.373z" fill="#DD1A1F"/>
<path transform="translate(623,220)" d="m0 0h128v1c-4.62 0.33-9.24 0.66-14 1v1c-0.949 0.0619-1.9 0.124-2.88 0.188-1.55 0.402-1.55 0.402-3.12 0.812-1.45 2.46-1.45 2.46-2 5h-2c-0.33 0.66-0.66 1.32-1 2-0.99 0.33-1.98 0.66-3 1-0.33 0.66-0.66 1.32-1 2h-86c-0.33-1.32-0.66-2.64-1-4h-2c-0.66-2.31-1.32-4.62-2-7-0.949 0.0619-1.9 0.124-2.88 0.188-1.03-0.0619-2.06-0.124-3.12-0.188-0.66-0.99-1.32-1.98-2-3z" fill="#E81C24"/>
<path transform="translate(1163 24.8)" d="m0 0c3.72 3.19 7.05 6.21 7.62 11.2 0.469 7.16-0.52 12.1-5.38 17.8-5.85 5.02-10.9 6.48-18.6 6.25-3.46-1.07-5.96-2.51-8.69-4.88-0.581-0.492-1.16-0.985-1.76-1.49-3.81-4.01-3.92-7.79-3.8-13.1 0.57-5.68 3.12-10.6 7.25-14.5 7.8-4.51 15.3-5.45 23.4-1.25z" fill="#FCFCFD"/>
<path transform="translate(448 221)" d="m0 0c1.22 0.00222 2.45 0.00444 3.71 0.00673 1.01-2.19e-4 1.01-2.19e-4 2.04-4.43e-4 2.23 6.99e-4 4.47 0.00849 6.7 0.0163 1.55 0.00186 3.09 0.00329 4.64 0.00429 4.08 0.00383 8.15 0.0137 12.2 0.0247 4.16 0.0102 8.31 0.0148 12.5 0.0198 8.16 0.0107 16.3 0.0278 24.5 0.0488v1c-0.904 0.11-1.81 0.219-2.74 0.332-1.18 0.159-2.36 0.317-3.57 0.48-1.17 0.151-2.34 0.302-3.55 0.457-3.24 0.754-4.04 1.32-6.14 3.73-2.69 0.188-2.69 0.188-5 0-0.681 1.89-0.681 1.89-1 4 0.66 0.66 1.32 1.32 2 2h-53c-1-3-1-3-0.258-5.01 0.374-0.699 0.748-1.4 1.13-2.12 0.369-0.704 0.737-1.41 1.12-2.13 1.58-2.72 1.58-2.72 4.75-2.86z" fill="#D71A21"/>
<path transform="translate(1249,228)" d="m0 0v1c-21.4 0.265-42.8 0.526-64.2 0.782-9.95 0.119-19.9 0.24-29.8 0.363-45.6 0.567-91.3 1.04-137 0.854v-1h20v-2c70.3-1.87 141-1.03 211 0z" fill="#F41D23"/>
<path transform="translate(1590,6)" d="m0 0c0.66 0.33 1.32 0.66 2 1-0.834 12-7.12 24.3-14 34-2.59 1.77-2.59 1.77-5 3-1.68 1.32-3.35 2.65-5 4-3.23 2.15-4.28 2.2-8 2v-2c-0.66-0.33-1.32-0.66-2-1 0.99-0.66 1.98-1.32 3-2-0.33-0.66-0.66-1.32-1-2 0.934-2.03 1.93-4.04 3-6 0.66 0.66 1.32 1.32 2 2 0.33-0.66 0.66-1.32 1-2 0.33-0.33 0.66-0.66 1-1-0.99-0.33-1.98-0.66-3-1h3v-2h2c0.33-0.66 0.66-1.32 1-2 0.33 0.33 0.66 0.66 1 1 1.16-2.95 1.16-2.95 1-6 0.99-0.33 1.98-0.66 3-1 0.33-0.66 0.66-1.32 1-2h2c0.227-0.784 0.454-1.57 0.688-2.38 1.65-3.31 2.98-3.34 6.31-4.62 0.986-1.94 0.986-1.94 1-4-0.33-0.66-0.66-1.32-1-2 1.65-1.32 3.3-2.64 5-4z" fill="#EC1D24"/>
<path transform="translate(1211,223)" d="m0 0h44c0.99 1.98 0.99 1.98 2 4-2 2-2 2-5.58 2.2-1.57-0.012-3.15-0.0354-4.72-0.0673-1.29-0.0142-1.29-0.0142-2.6-0.0287-2.85-0.0338-5.69-0.0819-8.54-0.13-1.97-0.0262-3.94-0.0514-5.91-0.0758-5.19-0.0667-10.4-0.146-15.6-0.227-5.3-0.0808-10.6-0.15-15.9-0.221-10.4-0.14-20.8-0.292-31.2-0.453 2.37-2.37 2.87-2.26 6.08-2.32 0.841-0.0199 1.68-0.0397 2.55-0.0602 0.908-0.0116 1.82-0.0231 2.75-0.035 1.39-0.029 1.39-0.029 2.82-0.0587 2.98-0.0599 5.95-0.106 8.93-0.152 2.01-0.0382 4.03-0.0772 6.04-0.117 4.94-0.0962 9.89-0.18 14.8-0.258v-2z" fill="#C6181F"/>
<path transform="translate(1585,69)" d="m0 0c0.176 4.48 0.259 8.05-2 12-1.94 1.06-1.94 1.06-4 2-0.712 1.05-0.712 1.05-1.44 2.12-0.516 0.619-1.03 1.24-1.56 1.88-2.38 0.125-2.38 0.125-5 0-2.74 0.927-2.74 0.927-5 2 1.75-5.75 1.75-5.75 4-8-0.0206-1.26-0.0412-2.52-0.0625-3.81 0.191-2.14 0.191-2.14 1.06-4.19 4.27-2.97 8.88-5.71 14-4z" fill="#E51C23"/>
<path transform="translate(1009 224)" d="m0 0c1.52 1.59e-4 3.04 0.00585 4.55 0.0159 0.798 0.00141 1.6 0.00283 2.42 0.00429 2.56 0.00562 5.12 0.0182 7.67 0.0309 1.73 0.00501 3.46 0.00958 5.19 0.0137 4.25 0.011 8.5 0.0283 12.7 0.0488v1c-1.98 0.33-3.96 0.66-6 1 0.66 1.32 1.32 2.64 2 4-11.3 0.639-22.6 1.17-34 1 1.04-6.97 1.04-6.97 5.42-7.11z" fill="#CD1920"/>
<path transform="translate(1199,223)" d="m0 0h12v2h43v1h-75v-1h20v-2z" fill="#F81D23"/>
<path transform="translate(1589,11)" d="m0 0h1c0 6.62-1.89 11.4-4.81 17.2-0.344 0.685-0.687 1.37-1.04 2.08-2.04 3.91-4.25 7.31-7.15 10.7 0.6-3.68 1.25-7.35 2-11h2c0.0825-1.22 0.165-2.43 0.25-3.69 0.506-4.16 1.94-6.17 4.75-9.31 0.712-1.65 1.39-3.31 2-5 0.33-0.33 0.66-0.66 1-1z" fill="#F71D23"/>
<path transform="translate(885,21)" d="m0 0c4.12-0.0578 8.25-0.0935 12.4-0.125 1.18-0.0168 2.35-0.0335 3.56-0.0508 1.68-0.00967 1.68-0.00967 3.4-0.0195 1.04-0.0105 2.07-0.0209 3.14-0.0317 2.52 0.227 2.52 0.227 4.52 2.23-0.375 2.13-0.375 2.13-1 4v-3c-13.4 0.495-13.4 0.495-27 1 0.33-1.32 0.66-2.64 1-4z" fill="#F9FCFE"/>
<path transform="translate(1430 107)" d="m0 0c0.875 0.00451 1.75 0.00902 2.65 0.0137 2.14 0.0117 4.27 0.0296 6.41 0.0488v1c-3.63 0.33-7.26 0.66-11 1v1h-16c0.33-0.66 0.66-1.32 1-2 5.63-1.19 11.2-1.12 16.9-1.06z" fill="#A4161B"/>
<path transform="translate(1471 211)" d="m0 0c1.21 0.0406 1.21 0.0406 2.45 0.082 0.615 0.0348 1.23 0.0696 1.86 0.105v4c-1.81 1.06-1.81 1.06-4 2-0.99-0.33-1.98-0.66-3-1 0.33-0.33 0.66-0.66 1-1-2.97-0.495-2.97-0.495-6-1 2.42-2.98 3.9-3.35 7.69-3.19z" fill="#DC1B22"/>
<path transform="translate(1518,182)" d="m0 0c-0.812 1.94-0.812 1.94-2 4-0.99 0.33-1.98 0.66-3 1-0.99 1.49-0.99 1.49-2 3-3.12 0.188-3.12 0.188-6 0 1.32-0.99 2.64-1.98 4-3-0.66-0.66-1.32-1.32-2-2 0.928-0.124 1.86-0.248 2.81-0.375 3.15-0.618 5.1-2.62 8.19-2.62z" fill="#9A1419"/>
<path transform="translate(449,120)" d="m0 0h2c0.33 4.95 0.66 9.9 1 15-0.99 0.495-0.99 0.495-2 1-1.14-3.42-1.1-6.09-1.06-9.69 0.00902-1.18 0.018-2.36 0.0273-3.57 0.0116-0.904 0.0232-1.81 0.0352-2.74z" fill="#FBFDFE"/>
<path transform="translate(882,191)" d="m0 0c0.33 1.32 0.66 2.64 1 4h-26c0.33-0.66 0.66-1.32 1-2 0.984 0.0157 0.984 0.0157 1.99 0.0317 2.96 0.0415 5.92 0.0676 8.89 0.0933 1.55 0.0251 1.55 0.0251 3.13 0.0508 0.986 0.00645 1.97 0.0129 2.99 0.0195 0.911 0.0105 1.82 0.0209 2.76 0.0317 2.45-0.00834 2.45-0.00834 4.25-2.23z" fill="#FAFDFF"/>
<path transform="translate(686,61)" d="m0 0v3c-5.46 0.111-10.6-0.0834-16-1v-1c5.37-0.682 10.6-1.12 16-1z" fill="#BBBEBE"/>
<path transform="translate(517,221)" d="m0 0c0.33 0.99 0.66 1.98 1 3h-14v-2c1.6-0.169 3.21-0.335 4.81-0.5 0.893-0.0928 1.79-0.186 2.71-0.281 2.48-0.219 2.48-0.219 5.48-0.219z" fill="#F11D24"/>
<path transform="translate(742,124)" d="m0 0c0.66 0.66 1.32 1.32 2 2-0.0234 3.04-0.0234 3.04-0.375 6.62-0.111 1.19-0.222 2.38-0.336 3.6-0.0954 0.915-0.191 1.83-0.289 2.77h-2c-0.0272-1.75-0.0465-3.5-0.0625-5.25-0.0116-0.975-0.0232-1.95-0.0352-2.95 0.0857-2.45 0.391-4.46 1.1-6.8z" fill="#FBFDFE"/>
<path transform="translate(1549,150)" d="m0 0c-0.375 2.44-0.375 2.44-1 5l-2 1v-3c-4.45-0.99-4.45-0.99-9-2v-1c8.57-1.29 8.57-1.29 12 0z" fill="#BB171E"/>
<path transform="translate(1475,177)" d="m0 0h10v1h-10v-1z" fill="#0B0809"/>
<path transform="translate(1476,210)" d="m0 0 4 2c-0.99 0.33-1.98 0.66-3 1-0.33-0.99-0.66-1.98-1-3z" fill="#28090B"/>
<path transform="translate(1569,112)" d="m0 0h3c-0.33 0.99-0.66 1.98-1 3-0.66-0.99-1.32-1.98-2-3z" fill="#050505"/>
<path transform="translate(543,16)" d="m0 0h6v1h-6v-1z" fill="#FDFDFD"/>
<path transform="translate(1434,103)" d="m0 0c3 1 3 1 3 1z" fill="#0B0809"/>
<path transform="translate(978,71)" d="m0 0h2c-0.33 0.66-0.66 1.32-1 2-0.33-0.66-0.66-1.32-1-2z" fill="#0B0809"/>
<path transform="translate(1584,67)" d="m0 0h2c-0.33 0.66-0.66 1.32-1 2-0.33-0.66-0.66-1.32-1-2z" fill="#030304"/>
<path transform="translate(1152,21)" d="m0 0c3 1 3 1 3 1z" fill="#FDFDFD"/>
<path transform="translate(1592,4)" d="m0 0c0.33 0.66 0.66 1.32 1 2-0.66-0.33-1.32-0.66-2-1 0.33-0.33 0.66-0.66 1-1z" fill="#0B0809"/>
<path transform="translate(1256,223)" d="m0 0 2 1z" fill="#000102"/>
<path transform="translate(1347,208)" d="m0 0 2 1z" fill="#000202"/>
<path transform="translate(1345,207)" d="m0 0 2 1z" fill="#000202"/>
<path transform="translate(1421,105)" d="m0 0 2 1z" fill="#0B0809"/>
</svg>
