<?xml version="1.0" encoding="UTF-8"?>
<svg version="1.1" xmlns="http://www.w3.org/2000/svg" width="1479" height="1116">
<path d="M0 0 C0.66 0 1.32 0 2 0 C2.30340667 7.45236253 1.46235118 14.27581098 -0.0625 21.5625 C-0.28655518 22.64748779 -0.51061035 23.73247559 -0.74145508 24.8503418 C-8.40434541 60.89218874 -21.24648368 95.72729929 -39 128 C-39.39219727 128.7209082 -39.78439453 129.44181641 -40.18847656 130.18457031 C-45.04073701 139.0946405 -50.1796428 147.67743317 -56 156 C-56.38269043 156.54865723 -56.76538086 157.09731445 -57.15966797 157.66259766 C-71.88619087 178.71659876 -88.14990058 198.33807878 -106.32861328 216.51391602 C-107.8717353 218.05923066 -109.40664306 219.61240446 -110.94140625 221.16601562 C-116.55348436 226.80907215 -122.29079939 232.07257241 -128.54394531 237.01757812 C-131.08236024 239.06647765 -133.48140236 241.22202339 -135.875 243.4375 C-148.39362755 254.81089033 -162.59006832 264.514194 -176.6875 273.8125 C-179.19521199 275.46853622 -181.69404129 277.1352454 -184.1875 278.8125 C-206.45392059 293.77429829 -229.36561114 307.31346603 -253 320 C-253.87172852 320.47083008 -254.74345703 320.94166016 -255.64160156 321.42675781 C-268.65070812 328.43997846 -281.90211481 334.74708198 -295.37792969 340.81005859 C-298.77350021 342.35102793 -302.13524682 343.95539753 -305.5 345.5625 C-323.24113645 353.85090635 -341.55169082 360.87802519 -359.85644531 367.80615234 C-362.81234017 368.92873124 -365.76221508 370.06577215 -368.7109375 371.20703125 C-430.34148905 394.90615804 -494.61852649 411.75514251 -559 426 C-559.88367249 426.19615906 -560.76734497 426.39231812 -561.67779541 426.59442139 C-623.44139302 440.2890574 -686.18136704 450.51882118 -749 458 C-749.88024841 458.10485718 -750.76049683 458.20971436 -751.66741943 458.31774902 C-758.44330276 459.12204398 -765.22100754 459.90986877 -772 460.6875 C-772.89699615 460.79059479 -773.79399231 460.89368958 -774.71817017 460.99990845 C-788.12862643 462.53304976 -801.55326767 463.82861868 -815 465 C-798.72298675 465.89235534 -782.48781037 466.20243728 -766.1875 466.1875 C-764.95589142 466.18689575 -763.72428284 466.1862915 -762.45535278 466.18566895 C-709.04122099 466.11536971 -656.01933233 462.34242208 -603 456 C-601.91041992 455.87270508 -600.82083984 455.74541016 -599.69824219 455.61425781 C-555.54480845 450.45383408 -511.49136243 443.17870033 -468 434 C-466.87851562 433.76603516 -465.75703125 433.53207031 -464.6015625 433.29101562 C-420.63591074 424.11054486 -377.20340321 413.25971242 -334 401 C-333.30352356 400.80257202 -332.60704712 400.60514404 -331.88946533 400.4017334 C-313.81574827 395.27417453 -295.84366634 389.88398584 -278 384 C-277.33250732 383.78001343 -276.66501465 383.56002686 -275.97729492 383.33337402 C-264.63843969 379.59451493 -253.31392891 375.81359625 -242 372 C-240.25033936 371.41049561 -240.25033936 371.41049561 -238.46533203 370.80908203 C-208.24092827 360.5841621 -178.37874024 349.3375608 -148.75341797 337.49755859 C-145.1221407 336.04685272 -141.48528109 334.61050135 -137.84765625 333.17578125 C-128.55197774 329.50024395 -119.30799796 325.82302008 -110.28125 321.5234375 C-106.14489395 319.60298648 -101.95001822 317.8383197 -97.75 316.0625 C-88.26974988 312.03453951 -78.87717381 307.82339247 -69.5 303.5625 C-68.79055237 303.24056671 -68.08110474 302.91863342 -67.35015869 302.58694458 C-60.30551039 299.38708885 -53.27906697 296.16104608 -46.3203125 292.77734375 C-45.34384766 292.30288818 -44.36738281 291.82843262 -43.36132812 291.33959961 C-41.58711181 290.47101245 -39.81725354 289.59344348 -38.05273438 288.70532227 C-36.9012793 288.13962524 -36.9012793 288.13962524 -35.7265625 287.5625 C-35.07252441 287.23378906 -34.41848633 286.90507812 -33.74462891 286.56640625 C-32 286 -32 286 -29 287 C-27.53703241 323.73674173 -44.16929373 355.59127335 -68.5 382.25 C-70.32295665 384.17848236 -72.15442766 386.09368891 -74 388 C-74.74950928 388.78818115 -74.74950928 388.78818115 -75.51416016 389.59228516 C-82.88646708 397.33194466 -90.60587118 404.20075182 -99.15673828 410.60986328 C-101.05619551 412.04238109 -102.93319083 413.50101008 -104.80859375 414.96484375 C-119.2387567 426.13745462 -134.87429531 435.14594688 -150.88330078 443.84765625 C-152.89423006 444.94241821 -154.89862903 446.04835571 -156.90234375 447.15625 C-164.36082775 451.2459482 -171.92533363 454.8457865 -179.7578125 458.1640625 C-183.27108608 459.65644971 -186.7203989 461.26899166 -190.17578125 462.890625 C-196.70790928 465.91475835 -203.32825974 468.58705143 -210.0625 471.125 C-211.29347412 471.58946533 -212.52444824 472.05393066 -213.79272461 472.5324707 C-238.79804755 481.88950274 -264.22260078 490.05488834 -290 497 C-291.17143555 497.31888184 -292.34287109 497.63776367 -293.54980469 497.96630859 C-348.1374566 512.74771071 -403.95987423 522.65236516 -460 530 C-461.42921611 530.18932567 -462.8584158 530.37877529 -464.28759766 530.56835938 C-473.51624349 531.78741282 -482.75448912 532.91612232 -492 534 C-493.33187692 534.158295 -494.66374533 534.31666152 -495.99560547 534.47509766 C-568.8742802 543.09163004 -642.28675902 547.0442392 -715.6192627 548.91143799 C-719.69489569 549.01820353 -723.77006767 549.13791836 -727.84529114 549.25915527 C-762.22334687 550.2712935 -796.61091476 550.10327193 -831 550 C-815.89639272 553.90173756 -800.86045249 557.77494568 -785.4375 560.1875 C-784.33350861 560.36569275 -784.33350861 560.36569275 -783.20721436 560.54748535 C-757.00630647 564.77278876 -730.62890952 567.57102022 -704.12081909 568.89285278 C-702.63068264 568.96813689 -701.14072297 569.04696302 -699.65090942 569.12838745 C-679.71168239 570.20325193 -659.77405155 570.19808816 -639.8125 570.1875 C-638.04789225 570.18755615 -636.28328451 570.18761722 -634.51867676 570.18768311 C-608.32659672 570.18040843 -582.20023226 569.82703844 -556.05444336 568.1328125 C-554.13357926 568.00863543 -552.21230818 567.89079924 -550.29101562 567.7734375 C-542.51699775 567.29118941 -534.76027487 566.66455122 -527 566 C-525.39310487 565.86688518 -523.78616833 565.73426951 -522.17919922 565.60205078 C-426.54464798 557.70975745 -331.24533896 542.17339776 -211.57757568 514.62109375 C-208.96570927 513.99173729 -206.35326785 513.3648135 -203.74072266 512.73828125 C-176.34474042 506.16086627 -149.0151348 499.33064972 -121.8125 491.9921875 C-120.8692688 491.73793503 -119.9260376 491.48368256 -118.95422363 491.22172546 C-114.32124637 489.97194658 -109.68977323 488.71697188 -105.06054688 487.45336914 C-103.38413271 486.99879382 -101.7077013 486.5442821 -100.03125 486.08984375 C-99.26111572 485.87782318 -98.49098145 485.66580261 -97.69750977 485.44735718 C-94.70957478 484.64023958 -92.110403 484 -89 484 C-89.54316669 489.31478297 -90.87218981 493.79971922 -93.0625 498.6875 C-93.37268066 499.38447998 -93.68286133 500.08145996 -94.00244141 500.79956055 C-99.01256333 511.71152106 -106.2242845 520.92386312 -114 530 C-114.68578125 530.82113281 -115.3715625 531.64226563 -116.078125 532.48828125 C-158.75492071 582.04078294 -232.47435715 605.00246569 -294 619 C-294.65768372 619.14975281 -295.31536743 619.29950562 -295.99298096 619.45379639 C-320.11092547 624.92472906 -344.30596515 629.25247361 -368.79406738 632.69006348 C-370.87842619 632.98291872 -372.96220695 633.2795883 -375.04589844 633.57714844 C-416.19063925 639.39187925 -457.51404055 642.07092586 -499 644 C-499.80772921 644.03969217 -500.61545841 644.07938435 -501.44766426 644.12027931 C-515.67958838 644.8179099 -529.88057154 645.18510151 -544.12890625 645.23828125 C-545.14506704 645.24312531 -546.16122784 645.24796936 -547.20818138 645.25296021 C-554.99294961 645.28936774 -562.77765437 645.30531872 -570.5625 645.3125 C-571.71936813 645.31379787 -572.87623627 645.31509575 -574.06816101 645.31643295 C-656.71213562 645.38640314 -739.69967759 641.94176084 -821.90551758 633.08007812 C-823.05534119 632.95800491 -823.05534119 632.95800491 -824.22839355 632.83346558 C-826.23072326 632.61909951 -828.23222633 632.39704953 -830.23364258 632.17431641 C-831.6029895 632.08802979 -831.6029895 632.08802979 -833 632 C-833.33 632.33 -833.66 632.66 -834 633 C-832.90042969 633.10828125 -831.80085937 633.2165625 -830.66796875 633.328125 C-825.41728783 633.98719664 -820.41021632 635.36180001 -815.3125 636.75 C-813.26086041 637.29594115 -811.20876627 637.8401766 -809.15625 638.3828125 C-808.12628906 638.65512695 -807.09632813 638.92744141 -806.03515625 639.20800781 C-791.46927963 643.00882053 -776.79102851 646.21377099 -762 649 C-760.99710938 649.19062012 -759.99421875 649.38124023 -758.9609375 649.57763672 C-744.76834214 652.25601428 -730.54641674 654.58580926 -716.25 656.625 C-715.56316132 656.72328094 -714.87632263 656.82156189 -714.16867065 656.92282104 C-615.58663668 670.95530919 -515.22054133 673.32987757 -381 667 C-379.78229919 666.92267639 -378.56459839 666.84535278 -377.30999756 666.76568604 C-360.52482768 665.69072984 -343.7586376 664.42871148 -327 663 C-326.09763611 662.9235022 -325.19527222 662.84700439 -324.26556396 662.76818848 C-301.05585647 660.79021382 -277.90082931 658.27459044 -254.74799728 655.72650528 C-252.73451646 655.5051684 -250.72092216 655.28488978 -248.70730591 655.06478882 C-233.22138587 653.36556898 -217.77787268 651.50883398 -202.3646698 649.2442627 C-196.85440676 648.45017325 -191.5691079 647.76919811 -186 648 C-189.47948079 670.80992962 -209.7839812 690.35191384 -227.58911133 703.49609375 C-293.48871868 750.92214118 -373.18920803 768.15938512 -453 773 C-454.33683838 773.08677002 -454.33683838 773.08677002 -455.70068359 773.17529297 C-556.78591392 779.51546096 -659.92805248 765.34044953 -767.17034912 743.5814209 C-770.03308309 742.99320227 -772.8966138 742.40898499 -775.76025391 741.82519531 C-805.04084742 735.83994683 -834.08297681 729.03693246 -863.06262207 721.7388916 C-865.94309872 721.0143134 -868.82443114 720.29324428 -871.70605469 719.57324219 C-891.56711032 714.60632651 -911.35867392 709.43531745 -931.0625 703.875 C-931.91499329 703.63457977 -932.76748657 703.39415955 -933.64581299 703.14645386 C-936.02652953 702.4732663 -938.40613525 701.79634024 -940.78515625 701.1171875 C-941.4912352 700.91669296 -942.19731415 700.71619843 -942.92478943 700.5096283 C-947.76398727 699.11800636 -947.76398727 699.11800636 -950 698 C-948.42482775 701.15034451 -945.25908969 701.5934296 -942.1015625 702.73046875 C-941.01568344 703.13068489 -941.01568344 703.13068489 -939.90786743 703.53898621 C-937.48305472 704.42972363 -935.05430657 705.30909837 -932.625 706.1875 C-930.90196326 706.81511603 -929.17898254 707.44288589 -927.45605469 708.07080078 C-921.97620087 710.0625836 -916.48900687 712.0336045 -911 714 C-910.13201782 714.31144958 -909.26403564 714.62289917 -908.36975098 714.94378662 C-811.37957173 749.71623223 -711.32992616 778.64934459 -469 811 C-468.03046387 811.02191406 -467.06092773 811.04382813 -466.06201172 811.06640625 C-419.89131318 811.98629398 -374.22005729 807.06355626 -330.23291016 792.6550293 C-328 792 -328 792 -326 792 C-328.43445406 797.56992891 -332.89636411 801.61671856 -337 806 C-337.65871094 806.72445312 -338.31742188 807.44890625 -338.99609375 808.1953125 C-350.96672314 820.84264413 -365.93454553 830.46691673 -381 839 C-381.81452637 839.46148438 -382.62905273 839.92296875 -383.46826172 840.3984375 C-439.99459518 872.01911776 -506.71159681 881.25094695 -570.625 881.1875 C-571.75238586 881.18689575 -572.87977173 881.1862915 -574.0413208 881.18566895 C-592.11414066 881.15944633 -609.99747678 880.70175406 -628 879 C-628.68678833 878.93683594 -629.37357666 878.87367188 -630.08117676 878.80859375 C-729.01448434 869.70871448 -825.41804854 843.36570361 -1032.43457031 764.38305664 C-1033.27240051 764.01888138 -1034.11023071 763.65470612 -1034.97344971 763.27949524 C-1036.53251545 762.60101219 -1038.09018244 761.91930246 -1039.6461792 761.23381042 C-1043.19071195 759.57473747 -1043.19071195 759.57473747 -1047 759 C-971.49609666 808.50073792 -892.02965133 852.36358349 -785.91888428 890.35083008 C-784.08351007 890.97174805 -782.24996041 891.59805141 -780.41650391 892.22460938 C-738.76405359 906.39154448 -695.62766994 916.38459693 -652 922 C-650.74509766 922.16516113 -649.49019531 922.33032227 -648.19726562 922.50048828 C-611.51258165 927.12673886 -572.58823648 927.54531161 -536 922 C-534.25904053 921.74259033 -534.25904053 921.74259033 -532.48291016 921.47998047 C-516.14124976 918.99170751 -500.27504546 915.24716189 -484.39648438 910.67675781 C-482.27232262 910.07690284 -480.14447629 909.52179766 -478 909 C-479.29192221 911.90236337 -480.54845907 913.75396619 -482.9921875 915.77734375 C-483.60400879 916.28402588 -484.21583008 916.79070801 -484.84619141 917.31274414 C-485.51569824 917.84891357 -486.18520508 918.38508301 -486.875 918.9375 C-487.58188965 919.50525146 -488.2887793 920.07300293 -489.01708984 920.65795898 C-538.44528297 959.60479911 -602.14192635 979.97076166 -664 987 C-664.74984161 987.08720306 -665.49968323 987.17440613 -666.27224731 987.26425171 C-682.61629329 989.11642347 -698.87630508 989.35948998 -715.3125 989.3125 C-716.64963774 989.31057612 -717.98677561 989.30873565 -719.32391357 989.30697632 C-739.39499386 989.2686103 -759.08941279 988.65858281 -779 986 C-780.341176 985.83097576 -781.68248903 985.66303595 -783.02392578 985.49609375 C-843.587086 977.88905348 -902.45545089 960.6978694 -959 938 C-959.6542395 937.7378772 -960.308479 937.47575439 -960.98254395 937.20568848 C-1001.8462033 920.80168446 -1042.18905887 901.7043007 -1080.26171875 879.57421875 C-1084.16745077 877.32884072 -1088.11400465 875.15942374 -1092.05786133 872.98193359 C-1114.90771434 860.33688661 -1137.01796937 846.5180893 -1158.92236328 832.3125 C-1160.94873382 830.98412922 -1160.94873382 830.98412922 -1163 830 C-1166.19368365 831.68572088 -1166.19368365 831.68572088 -1166.875 834.625 C-1167.13683509 841.6945475 -1164.32098297 845.97653529 -1159.875 851.1875 C-1145.51803617 866.27589576 -1126.73292003 877.398314 -1108.88623047 887.88330078 C-1107.07178031 888.95750413 -1105.27107742 890.05156448 -1103.47265625 891.15234375 C-1087.46669977 900.86142823 -1070.7428857 909.62855715 -1054 918 C-1054 918.66 -1054 919.32 -1054 920 C-1061.09190497 919.54707162 -1068.15747612 918.99664039 -1075.2253418 918.26464844 C-1095.75742218 916.16435825 -1116.37137928 915.6702788 -1137 916 C-1138.39629639 916.01885254 -1138.39629639 916.01885254 -1139.82080078 916.03808594 C-1221.64817242 917.41711989 -1311.99000218 937.10275717 -1373 995 C-1374.47318507 996.27776256 -1375.95189773 997.54919588 -1377.4375 998.8125 C-1380.32118479 1001.31129873 -1382.74600009 1003.90075013 -1385 1007 C-1386.9375 1006.625 -1386.9375 1006.625 -1389 1006 C-1391.5729741 1000.8540518 -1390.55237147 993.9757021 -1389.05859375 988.6328125 C-1385.89937481 980.21483099 -1385.89937481 980.21483099 -1383.71508789 977.2644043 C-1378.65775542 969.99219477 -1379.49121891 962.31345353 -1379.73788452 953.82751465 C-1379.86493115 949.33240228 -1379.9016479 944.83641298 -1379.9453125 940.33984375 C-1379.95566025 939.44681549 -1379.966008 938.55378723 -1379.97666931 937.63369751 C-1380.0861883 925.69468413 -1379.12697522 913.87997661 -1378 902 C-1377.90348145 900.88367188 -1377.80696289 899.76734375 -1377.70751953 898.6171875 C-1376.04766448 879.47298081 -1372.87129488 860.79870231 -1369 842 C-1368.79117187 840.98212402 -1368.58234375 839.96424805 -1368.3671875 838.91552734 C-1367.04524734 832.57572268 -1365.5774499 826.28092425 -1364 820 C-1363.73525879 818.94409668 -1363.47051758 817.88819336 -1363.19775391 816.80029297 C-1355.68556672 787.31506417 -1345.45524092 758.75394576 -1333 731 C-1332.42668945 729.71681885 -1332.42668945 729.71681885 -1331.84179688 728.40771484 C-1317.89758596 697.45132067 -1300.00337641 668.38035258 -1280 641 C-1279.53335937 640.3591748 -1279.06671875 639.71834961 -1278.5859375 639.05810547 C-1272.32023114 630.48254814 -1265.79596743 622.24413292 -1258.80859375 614.24609375 C-1256.24816787 611.31109828 -1253.80463757 608.29451949 -1251.375 605.25 C-1247.6337293 600.6344106 -1243.5791349 596.47736912 -1239.33203125 592.328125 C-1237.3043561 590.3038463 -1235.41882613 588.24224333 -1233.5625 586.0625 C-1227.30962425 578.77730985 -1220.38171196 572.03004035 -1213.08203125 565.80078125 C-1210.56846422 563.62675798 -1208.13223771 561.37609512 -1205.6875 559.125 C-1201.17709564 555.01220704 -1196.54748841 551.10088755 -1191.796875 547.26953125 C-1188.93475509 544.94705685 -1186.12460193 542.57018637 -1183.3125 540.1875 C-1170.86497584 529.81989633 -1157.65953014 520.54490021 -1144.22949219 511.50341797 C-1142.20222634 510.1363677 -1140.18212348 508.75948926 -1138.1640625 507.37890625 C-1115.31691563 491.83139355 -1090.95641816 477.85686808 -1066 466 C-1064.26024902 465.17000488 -1064.26024902 465.17000488 -1062.48535156 464.32324219 C-1032.1227451 449.8566148 -1032.1227451 449.8566148 -1017 444 C-1015.09892323 443.25139123 -1013.19788473 442.50268526 -1011.296875 441.75390625 C-999.24682508 437.03814131 -987.12201499 432.54176095 -974.9375 428.1875 C-973.70306152 427.74374023 -972.46862305 427.29998047 -971.19677734 426.84277344 C-952.24122914 420.12824658 -932.82765334 415.35916246 -913.33050537 410.53112793 C-909.77894847 409.65090099 -906.22838223 408.76669776 -902.67773438 407.8828125 C-880.43549917 402.34861543 -880.43549917 402.34861543 -873.27197266 400.59765625 C-864.13412589 398.35591508 -855.07440477 395.92454177 -846.03675842 393.30715942 C-839.67248532 391.46621797 -833.29043423 389.7053623 -826.890625 387.9921875 C-825.95276657 387.74093613 -825.01490814 387.48968475 -824.04862976 387.2308197 C-822.11396058 386.71281067 -820.17924202 386.19498606 -818.24447632 385.67733765 C-795.76376559 379.65387357 -773.40778174 373.26442898 -751.10205078 366.62512207 C-748.06906501 365.72315226 -745.03456047 364.82634313 -742 363.9296875 C-737.79706468 362.68730636 -733.59542666 361.44066607 -729.39453125 360.19140625 C-723.41639817 358.41591689 -717.43317603 356.65809232 -711.44921875 354.90234375 C-692.9192299 349.46139694 -674.40806598 344.01178992 -656.0546875 337.99658203 C-652.66520385 336.89077383 -649.27060463 335.80170816 -645.875 334.71484375 C-628.15875854 329.03930867 -610.50014611 323.19974447 -592.86003113 317.29220581 C-587.61743806 315.53762843 -582.37045258 313.79671887 -577.12109375 312.0625 C-546.61405064 301.97476823 -516.25345777 291.47861688 -486.16992188 280.18554688 C-482.8721321 278.95217756 -479.56967878 277.7321089 -476.265625 276.515625 C-461.88395562 271.21998526 -447.54882662 265.81498579 -433.26269531 260.26660156 C-431.10918321 259.43059283 -428.95490029 258.59656664 -426.79980469 257.76464844 C-394.54340597 245.30707239 -362.65424424 231.91156485 -331 218 C-329.89688477 217.51789063 -328.79376953 217.03578125 -327.65722656 216.5390625 C-308.91191836 208.34318181 -290.39569168 199.6904538 -271.91833496 190.91131592 C-270.11550914 190.05487327 -268.31216665 189.19951848 -266.50878906 188.34423828 C-259.99440711 185.25301882 -253.49019881 182.1416834 -247 179 C-246.32050293 178.67193359 -245.64100586 178.34386719 -244.94091797 178.00585938 C-231.94448458 171.70496031 -219.26928722 164.7767511 -206.56103516 157.91943359 C-203.17318575 156.09191571 -199.7801992 154.27407324 -196.38671875 152.45703125 C-186.09812906 146.935584 -175.9176047 141.31955937 -165.97119141 135.20263672 C-163.70233555 133.81839298 -161.42057771 132.45700132 -159.13671875 131.09765625 C-149.30192274 125.2425262 -139.56185615 119.29246271 -130 113 C-129.42540039 112.62198242 -128.85080078 112.24396484 -128.25878906 111.85449219 C-124.51036157 109.38361094 -120.77776353 106.89001264 -117.05419922 104.38183594 C-115.6460868 103.43461508 -114.23615998 102.49008749 -112.82470703 101.54785156 C-95.90536724 90.24390346 -79.56294695 78.11699843 -64 65 C-62.93627251 64.11058786 -61.8724657 63.22127059 -60.80859375 62.33203125 C-54.07982817 56.69044614 -47.46789625 50.94047123 -41 45 C-40.42459473 44.4750293 -39.84918945 43.95005859 -39.25634766 43.40917969 C-31.43501984 36.26366947 -23.87477548 29.0800134 -17 21 C-16.07437041 19.92565057 -15.14857958 18.85144004 -14.22265625 17.77734375 C-9.64111939 12.43362743 -5.14221277 7.08003915 -1.12109375 1.29296875 C-0.75113281 0.86628906 -0.38117188 0.43960938 0 0 Z " fill="#FE3A3A" transform="translate(1427,51)"/>
<path d="M0 0 C5.40658764 0.55714517 10.7056774 0.83507212 16.14624023 0.63549805 C18.00952148 0.6628418 18.00952148 0.6628418 20.00952148 1.6628418 C20.00952148 2.3228418 20.00952148 2.9828418 20.00952148 3.6628418 C12.91761651 3.20991341 5.85204537 2.65948219 -1.21582031 1.92749023 C-21.74790069 -0.17279995 -42.36185779 -0.6668794 -62.99047852 -0.3371582 C-64.3867749 -0.31830566 -64.3867749 -0.31830566 -65.8112793 -0.29907227 C-81.71453752 -0.03105519 -97.4289852 1.51261964 -113.22119141 3.29077148 C-114.0213266 3.38017502 -114.82146179 3.46957855 -115.64584351 3.56169128 C-117.14941375 3.73067001 -118.65263994 3.90275155 -120.15542603 4.0785675 C-124.12275787 4.52670417 -127.99848464 4.74669902 -131.99047852 4.6628418 C-131.99047852 4.3328418 -131.99047852 4.0028418 -131.99047852 3.6628418 C-127.79580029 3.10784529 -123.60063956 2.55668416 -119.4050293 2.00878906 C-117.98334776 1.8226203 -116.56179351 1.63547639 -115.14038086 1.44726562 C-77.16408611 -3.5778263 -38.10129691 -4.00111631 0 0 Z " fill="#FE7E7E" transform="translate(352.990478515625,967.337158203125)"/>
<path d="M0 0 C10.52291668 -0.07776197 20.99354864 0.12231516 31.5078125 0.62109375 C32.93112998 0.68622576 34.35445999 0.75108449 35.77780151 0.81568909 C38.73072045 0.95047482 41.68351419 1.08765343 44.63623047 1.22680664 C48.37837468 1.40309216 52.12071918 1.57457871 55.86316109 1.74441433 C58.79241684 1.87766223 61.7215822 2.01281668 64.6507225 2.14857674 C66.02909298 2.2123683 67.40748235 2.27575328 68.78589249 2.33868217 C77.87033492 2.75539706 86.93241326 3.31007135 96 4 C96 4.33 96 4.66 96 5 C63.86324275 5.79440548 32.02226003 3.49859291 0 1 C0 0.67 0 0.34 0 0 Z " fill="#FE9A9A" transform="translate(849,837)"/>
<path d="M0 0 C8.57142857 -0.14285714 8.57142857 -0.14285714 12 1 C12 1.66 12 2.32 12 3 C12.804375 3.12375 13.60875 3.2475 14.4375 3.375 C15.283125 3.58125 16.12875 3.7875 17 4 C17.33 4.66 17.66 5.32 18 6 C11.1781317 6.38614349 5.50422293 5.00865708 -1 3 C-0.67 2.01 -0.34 1.02 0 0 Z " fill="#FE7272" transform="translate(656,806)"/>
<path d="M0 0 C1.258125 0.12375 2.51625 0.2475 3.8125 0.375 C4.87404297 0.47941406 4.87404297 0.47941406 5.95703125 0.5859375 C8 1 8 1 11 3 C11 3.99 11 4.98 11 6 C9.741875 5.87625 8.48375 5.7525 7.1875 5.625 C6.12595703 5.52058594 6.12595703 5.52058594 5.04296875 5.4140625 C3 5 3 5 0 3 C0 2.01 0 1.02 0 0 Z " fill="#FE7878" transform="translate(462,848)"/>
<path d="M0 0 C3.45831586 -0.02894547 6.91660072 -0.04678 10.375 -0.0625 C11.35984375 -0.07087891 12.3446875 -0.07925781 13.359375 -0.08789062 C14.77089844 -0.09272461 14.77089844 -0.09272461 16.2109375 -0.09765625 C17.51490479 -0.10551147 17.51490479 -0.10551147 18.84521484 -0.11352539 C21 0 21 0 23 1 C23 1.66 23 2.32 23 3 C15.31102069 2.48594306 7.65144206 1.9234499 0 1 C0 0.67 0 0.34 0 0 Z " fill="#FE8484" transform="translate(350,968)"/>
<path d="M0 0 C4.455 0.99 4.455 0.99 9 2 C9.33 1.34 9.66 0.68 10 0 C14.875 1.75 14.875 1.75 16 4 C10.21101581 4.20674944 5.57067277 3.59162079 0 2 C0 1.34 0 0.68 0 0 Z " fill="#FE9C9C" transform="translate(658,808)"/>
<path d="M0 0 C2.31 0 4.62 0 7 0 C7 0.33 7 0.66 7 1 C4.69 1 2.38 1 0 1 C0 0.67 0 0.34 0 0 Z " fill="#FE9C9C" transform="translate(745,829)"/>
<path d="M0 0 C1.98 0 3.96 0 6 0 C6 0.33 6 0.66 6 1 C4.02 1 2.04 1 0 1 C0 0.67 0 0.34 0 0 Z " fill="#FE9C9C" transform="translate(842,836)"/>
<path d="M0 0 C1.98 0 3.96 0 6 0 C6 0.33 6 0.66 6 1 C4.02 1 2.04 1 0 1 C0 0.67 0 0.34 0 0 Z " fill="#FE9C9C" transform="translate(824,835)"/>
<path d="M0 0 C4 1 4 1 4 1 Z " fill="#FE9C9C" transform="translate(759,830)"/>
<path d="" fill="#FE9C9C" transform="translate(0,0)"/>
<path d="" fill="#FE9C9C" transform="translate(0,0)"/>
</svg>
